<?xml version="1.0" encoding="UTF-8"?>
<svg width="562px" height="118px" viewBox="0 0 562 118" version="1.1" xmlns="http://www.w3.org/2000/svg" xmlns:xlink="http://www.w3.org/1999/xlink" xmlns:sketch="http://www.bohemiancoding.com/sketch/ns">
    <!-- Generator: Sketch 3.4.2 (15855) - http://www.bohemiancoding.com/sketch -->
    <title>Modal-Button</title>
    <desc>Created with Sketch.</desc>
    <defs>
        <path id="path-1" d="M0.542299107,2.03888725 L1.32343049,2.89603921 L0.523381777,3.59247514 L1.58512138,4.54731726 L0.520228754,5.75898969 L1.74513116,6.82097589 L0.554910714,8.1397924 L1.8759766,9.3294059 L0.663685806,10.6025287 L1.98396344,11.7874152 L0.816601603,13.060538 L2.13609098,14.2013063 L0.971882006,15.5437576 L2.29058313,16.684526 L1.1255859,18.0017669 L2.51365094,19.1425353 L1.39515902,20.4834109 L2.7587891,21.5753342 L1.61743858,22.9382689 L3.00392711,24.0317678 L1.93430527,25.3947025 L3.34128764,26.4645669 L2.3165946,27.8479849 L3.74643558,28.8264616 L2.7461775,30.324902 L4.22331188,31.2765927 L3.2443359,32.7513983 L4.7671875,33.6353363 L3.85994004,35.1763191 L5.37727402,36.0145633 L4.51810822,37.5555461 L6.12766456,38.3197348 L5.31421598,39.9284704 L6.99155973,40.6233308 L6.29398022,42.2541254 L7.94688901,42.8560225 L7.31946152,44.5277839 L9.06065156,45.0162345 L8.52702294,46.7321141 L10.2863421,47.1023912 L9.93952294,48.8371785 L11.6956892,49.0246804 L11.4875976,50.8256451 L13.28554,50.8744901 L13.261105,52.6470929 L15.0535296,52.4879526 L15.1922572,54.3030979 L17.0035993,53.9580312 L17.3472657,55.6754864 L19.0387974,55.1492204 L19.5874024,56.8398895 L21.2087821,56.1544831 L21.9623257,57.7474622 L23.4828125,56.8587974 L24.375872,58.4013558 L25.8254186,57.3976687 L26.8745466,58.8220534 L28.2287179,57.7049197 L29.3684919,59.0347658 L30.651723,57.8073368 L31.8821429,59.0647032 L33.0479283,57.7458866 L34.368206,58.9355001 L35.4835449,57.5016613 L36.8944685,58.6172193 L37.9199498,57.1644728 L39.3497908,58.2107024 L40.326402,56.6902031 L41.780678,57.6671042 L42.7320661,56.1245458 L44.2296945,57.0541775 L45.112507,55.4895602 L46.7220633,56.2316898 L47.5583705,54.6465889 L49.2372908,55.4092021 L50.3557827,54.6607698 L51.213372,55.8787449 L52.6581892,55.5273757 L52.8418457,57.0888418 L54.4206613,57.1565946 L54.5964356,58.8992602 L56.3770368,58.5242561 L58.2033552,56.3183504 L58.2340961,54.5205372 L56.4787179,54.6796775 L56.1382045,53.1197871 L54.6003767,53.2395362 L54.7052107,51.6749188 L53.339216,51.0872023 L53.8720563,49.9322531 L52.8678571,48.5062927 L54.3946499,47.8681557 L53.5961775,46.3003869 L55.1647462,45.523593 L54.2961216,43.9321894 L55.8441964,43.1128529 L54.8857143,41.617564 L56.3581195,40.6595706 L55.3539203,39.1879163 L56.7806082,38.2094395 L55.6865514,36.810265 L57.0667341,35.738825 L55.971889,34.408979 L57.279555,33.2477271 L55.9781947,31.9430915 L57.216497,30.7392971 L55.8512904,29.6001043 L56.968206,28.1899003 L55.5375767,27.1893645 L56.4448242,25.7177102 L54.9274902,24.8810416 L55.7417271,23.2959408 L54.1542411,22.5742944 L54.7840332,20.9466511 L53.1114188,20.4582005 L53.5748954,18.720262 L51.8139998,18.3736195 L52.070173,16.6624669 L50.2950893,16.545869 L50.4109584,14.7716905 L48.6145927,14.792174 L48.5483818,13.0447814 L46.7543805,13.2496156 L46.549442,11.5305847 L44.7853935,11.8961348 L44.4433036,10.1771039 L42.6800432,10.6356172 L42.2220842,8.96543134 L40.5557757,9.56102586 L39.9149484,7.92077745 L38.2975098,8.6266673 L37.6566824,6.98641872 L36.0163854,7.76163712 L35.2849122,6.14659889 L33.6934849,7.01478032 L32.8697893,5.44701171 L31.323291,6.31519314 L30.4341726,4.79469381 L28.9601911,5.79838093 L28.0237793,4.27945731 L26.5505859,5.25950962 L25.5700336,3.81149009 L24.1189105,4.8136015 L23.1162876,3.38764107 L21.7140346,4.43544622 L20.6625419,3.01263705 L19.2618652,4.084077 L18.1654437,2.68332677 L16.8577776,3.82094401 L15.7164271,2.42176949 L14.3622559,3.53732748 L13.2902693,2.15863634 L11.936098,3.29940484 L10.7947475,1.94592405 L9.46422299,3.08511685 L8.32523723,1.73163606 L7.0175712,2.89288796 L5.87622067,1.53940717 L4.5456962,2.7006589 L3.43035714,1.34560257 L2.52468603,2.06094635 L1.62532081,1.11555799 L0.542299107,2.03888725 Z"></path>
        <path id="path-3" d="M0.542299107,2.03888725 L1.32343049,2.89603921 L0.523381777,3.59247514 L1.58512138,4.54731726 L0.520228754,5.75898969 L1.74513116,6.82097589 L0.554910714,8.1397924 L1.8759766,9.3294059 L0.663685806,10.6025287 L1.98396344,11.7874152 L0.816601603,13.060538 L2.13609098,14.2013063 L0.971882006,15.5437576 L2.29058313,16.684526 L1.1255859,18.0017669 L2.51365094,19.1425353 L1.39515902,20.4834109 L2.7587891,21.5753342 L1.61743858,22.9382689 L3.00392711,24.0317678 L1.93430527,25.3947025 L3.34128764,26.4645669 L2.3165946,27.8479849 L3.74643558,28.8264616 L2.7461775,30.324902 L4.22331188,31.2765927 L3.2443359,32.7513983 L4.7671875,33.6353363 L3.85994004,35.1763191 L5.37727402,36.0145633 L4.51810822,37.5555461 L6.12766456,38.3197348 L5.31421598,39.9284704 L6.99155973,40.6233308 L6.29398022,42.2541254 L7.94688901,42.8560225 L7.31946152,44.5277839 L9.06065156,45.0162345 L8.52702294,46.7321141 L10.2863421,47.1023912 L9.93952294,48.8371785 L11.6956892,49.0246804 L11.4875976,50.8256451 L13.28554,50.8744901 L13.261105,52.6470929 L15.0535296,52.4879526 L15.1922572,54.3030979 L17.0035993,53.9580312 L17.3472657,55.6754864 L19.0387974,55.1492204 L19.5874024,56.8398895 L21.2087821,56.1544831 L21.9623257,57.7474622 L23.4828125,56.8587974 L24.375872,58.4013558 L25.8254186,57.3976687 L26.8745466,58.8220534 L28.2287179,57.7049197 L29.3684919,59.0347658 L30.651723,57.8073368 L31.8821429,59.0647032 L33.0479283,57.7458866 L34.368206,58.9355001 L35.4835449,57.5016613 L36.8944685,58.6172193 L37.9199498,57.1644728 L39.3497908,58.2107024 L40.326402,56.6902031 L41.780678,57.6671042 L42.7320661,56.1245458 L44.2296945,57.0541775 L45.112507,55.4895602 L46.7220633,56.2316898 L47.5583705,54.6465889 L49.2372908,55.4092021 L50.3557827,54.6607698 L51.213372,55.8787449 L52.6581892,55.5273757 L52.8418457,57.0888418 L54.4206613,57.1565946 L54.5964356,58.8992602 L56.3770368,58.5242561 L58.2033552,56.3183504 L58.2340961,54.5205372 L56.4787179,54.6796775 L56.1382045,53.1197871 L54.6003767,53.2395362 L54.7052107,51.6749188 L53.339216,51.0872023 L53.8720563,49.9322531 L52.8678571,48.5062927 L54.3946499,47.8681557 L53.5961775,46.3003869 L55.1647462,45.523593 L54.2961216,43.9321894 L55.8441964,43.1128529 L54.8857143,41.617564 L56.3581195,40.6595706 L55.3539203,39.1879163 L56.7806082,38.2094395 L55.6865514,36.810265 L57.0667341,35.738825 L55.971889,34.408979 L57.279555,33.2477271 L55.9781947,31.9430915 L57.216497,30.7392971 L55.8512904,29.6001043 L56.968206,28.1899003 L55.5375767,27.1893645 L56.4448242,25.7177102 L54.9274902,24.8810416 L55.7417271,23.2959408 L54.1542411,22.5742944 L54.7840332,20.9466511 L53.1114188,20.4582005 L53.5748954,18.720262 L51.8139998,18.3736195 L52.070173,16.6624669 L50.2950893,16.545869 L50.4109584,14.7716905 L48.6145927,14.792174 L48.5483818,13.0447814 L46.7543805,13.2496156 L46.549442,11.5305847 L44.7853935,11.8961348 L44.4433036,10.1771039 L42.6800432,10.6356172 L42.2220842,8.96543134 L40.5557757,9.56102586 L39.9149484,7.92077745 L38.2975098,8.6266673 L37.6566824,6.98641872 L36.0163854,7.76163712 L35.2849122,6.14659889 L33.6934849,7.01478032 L32.8697893,5.44701171 L31.323291,6.31519314 L30.4341726,4.79469381 L28.9601911,5.79838093 L28.0237793,4.27945731 L26.5505859,5.25950962 L25.5700336,3.81149009 L24.1189105,4.8136015 L23.1162876,3.38764107 L21.7140346,4.43544622 L20.6625419,3.01263705 L19.2618652,4.084077 L18.1654437,2.68332677 L16.8577776,3.82094401 L15.7164271,2.42176949 L14.3622559,3.53732748 L13.2902693,2.15863634 L11.936098,3.29940484 L10.7947475,1.94592405 L9.46422299,3.08511685 L8.32523723,1.73163606 L7.0175712,2.89288796 L5.87622067,1.53940717 L4.5456962,2.7006589 L3.43035714,1.34560257 L2.52468603,2.06094635 L1.62532081,1.11555799 L0.542299107,2.03888725 Z"></path>
        <path id="path-5" d="M0.542299107,2.03888725 L1.32343049,2.89603921 L0.523381777,3.59247514 L1.58512138,4.54731726 L0.520228754,5.75898969 L1.74513116,6.82097589 L0.554910714,8.1397924 L1.8759766,9.3294059 L0.663685806,10.6025287 L1.98396344,11.7874152 L0.816601603,13.060538 L2.13609098,14.2013063 L0.971882006,15.5437576 L2.29058313,16.684526 L1.1255859,18.0017669 L2.51365094,19.1425353 L1.39515902,20.4834109 L2.7587891,21.5753342 L1.61743858,22.9382689 L3.00392711,24.0317678 L1.93430527,25.3947025 L3.34128764,26.4645669 L2.3165946,27.8479849 L3.74643558,28.8264616 L2.7461775,30.324902 L4.22331188,31.2765927 L3.2443359,32.7513983 L4.7671875,33.6353363 L3.85994004,35.1763191 L5.37727402,36.0145633 L4.51810822,37.5555461 L6.12766456,38.3197348 L5.31421598,39.9284704 L6.99155973,40.6233308 L6.29398022,42.2541254 L7.94688901,42.8560225 L7.31946152,44.5277839 L9.06065156,45.0162345 L8.52702294,46.7321141 L10.2863421,47.1023912 L9.93952294,48.8371785 L11.6956892,49.0246804 L11.4875976,50.8256451 L13.28554,50.8744901 L13.261105,52.6470929 L15.0535296,52.4879526 L15.1922572,54.3030979 L17.0035993,53.9580312 L17.3472657,55.6754864 L19.0387974,55.1492204 L19.5874024,56.8398895 L21.2087821,56.1544831 L21.9623257,57.7474622 L23.4828125,56.8587974 L24.375872,58.4013558 L25.8254186,57.3976687 L26.8745466,58.8220534 L28.2287179,57.7049197 L29.3684919,59.0347658 L30.651723,57.8073368 L31.8821429,59.0647032 L33.0479283,57.7458866 L34.368206,58.9355001 L35.4835449,57.5016613 L36.8944685,58.6172193 L37.9199498,57.1644728 L39.3497908,58.2107024 L40.326402,56.6902031 L41.780678,57.6671042 L42.7320661,56.1245458 L44.2296945,57.0541775 L45.112507,55.4895602 L46.7220633,56.2316898 L47.5583705,54.6465889 L49.2372908,55.4092021 L50.3557827,54.6607698 L51.213372,55.8787449 L52.6581892,55.5273757 L52.8418457,57.0888418 L54.4206613,57.1565946 L54.5964356,58.8992602 L56.3770368,58.5242561 L58.2033552,56.3183504 L58.2340961,54.5205372 L56.4787179,54.6796775 L56.1382045,53.1197871 L54.6003767,53.2395362 L54.7052107,51.6749188 L53.339216,51.0872023 L53.8720563,49.9322531 L52.8678571,48.5062927 L54.3946499,47.8681557 L53.5961775,46.3003869 L55.1647462,45.523593 L54.2961216,43.9321894 L55.8441964,43.1128529 L54.8857143,41.617564 L56.3581195,40.6595706 L55.3539203,39.1879163 L56.7806082,38.2094395 L55.6865514,36.810265 L57.0667341,35.738825 L55.971889,34.408979 L57.279555,33.2477271 L55.9781947,31.9430915 L57.216497,30.7392971 L55.8512904,29.6001043 L56.968206,28.1899003 L55.5375767,27.1893645 L56.4448242,25.7177102 L54.9274902,24.8810416 L55.7417271,23.2959408 L54.1542411,22.5742944 L54.7840332,20.9466511 L53.1114188,20.4582005 L53.5748954,18.720262 L51.8139998,18.3736195 L52.070173,16.6624669 L50.2950893,16.545869 L50.4109584,14.7716905 L48.6145927,14.792174 L48.5483818,13.0447814 L46.7543805,13.2496156 L46.549442,11.5305847 L44.7853935,11.8961348 L44.4433036,10.1771039 L42.6800432,10.6356172 L42.2220842,8.96543134 L40.5557757,9.56102586 L39.9149484,7.92077745 L38.2975098,8.6266673 L37.6566824,6.98641872 L36.0163854,7.76163712 L35.2849122,6.14659889 L33.6934849,7.01478032 L32.8697893,5.44701171 L31.323291,6.31519314 L30.4341726,4.79469381 L28.9601911,5.79838093 L28.0237793,4.27945731 L26.5505859,5.25950962 L25.5700336,3.81149009 L24.1189105,4.8136015 L23.1162876,3.38764107 L21.7140346,4.43544622 L20.6625419,3.01263705 L19.2618652,4.084077 L18.1654437,2.68332677 L16.8577776,3.82094401 L15.7164271,2.42176949 L14.3622559,3.53732748 L13.2902693,2.15863634 L11.936098,3.29940484 L10.7947475,1.94592405 L9.46422299,3.08511685 L8.32523723,1.73163606 L7.0175712,2.89288796 L5.87622067,1.53940717 L4.5456962,2.7006589 L3.43035714,1.34560257 L2.52468603,2.06094635 L1.62532081,1.11555799 L0.542299107,2.03888725 Z"></path>
        <path id="path-7" d="M0.542299107,2.03888725 L1.32343049,2.89603921 L0.523381777,3.59247514 L1.58512138,4.54731726 L0.520228754,5.75898969 L1.74513116,6.82097589 L0.554910714,8.1397924 L1.8759766,9.3294059 L0.663685806,10.6025287 L1.98396344,11.7874152 L0.816601603,13.060538 L2.13609098,14.2013063 L0.971882006,15.5437576 L2.29058313,16.684526 L1.1255859,18.0017669 L2.51365094,19.1425353 L1.39515902,20.4834109 L2.7587891,21.5753342 L1.61743858,22.9382689 L3.00392711,24.0317678 L1.93430527,25.3947025 L3.34128764,26.4645669 L2.3165946,27.8479849 L3.74643558,28.8264616 L2.7461775,30.324902 L4.22331188,31.2765927 L3.2443359,32.7513983 L4.7671875,33.6353363 L3.85994004,35.1763191 L5.37727402,36.0145633 L4.51810822,37.5555461 L6.12766456,38.3197348 L5.31421598,39.9284704 L6.99155973,40.6233308 L6.29398022,42.2541254 L7.94688901,42.8560225 L7.31946152,44.5277839 L9.06065156,45.0162345 L8.52702294,46.7321141 L10.2863421,47.1023912 L9.93952294,48.8371785 L11.6956892,49.0246804 L11.4875976,50.8256451 L13.28554,50.8744901 L13.261105,52.6470929 L15.0535296,52.4879526 L15.1922572,54.3030979 L17.0035993,53.9580312 L17.3472657,55.6754864 L19.0387974,55.1492204 L19.5874024,56.8398895 L21.2087821,56.1544831 L21.9623257,57.7474622 L23.4828125,56.8587974 L24.375872,58.4013558 L25.8254186,57.3976687 L26.8745466,58.8220534 L28.2287179,57.7049197 L29.3684919,59.0347658 L30.651723,57.8073368 L31.8821429,59.0647032 L33.0479283,57.7458866 L34.368206,58.9355001 L35.4835449,57.5016613 L36.8944685,58.6172193 L37.9199498,57.1644728 L39.3497908,58.2107024 L40.326402,56.6902031 L41.780678,57.6671042 L42.7320661,56.1245458 L44.2296945,57.0541775 L45.112507,55.4895602 L46.7220633,56.2316898 L47.5583705,54.6465889 L49.2372908,55.4092021 L50.3557827,54.6607698 L51.213372,55.8787449 L52.6581892,55.5273757 L52.8418457,57.0888418 L54.4206613,57.1565946 L54.5964356,58.8992602 L56.3770368,58.5242561 L58.2033552,56.3183504 L58.2340961,54.5205372 L56.4787179,54.6796775 L56.1382045,53.1197871 L54.6003767,53.2395362 L54.7052107,51.6749188 L53.339216,51.0872023 L53.8720563,49.9322531 L52.8678571,48.5062927 L54.3946499,47.8681557 L53.5961775,46.3003869 L55.1647462,45.523593 L54.2961216,43.9321894 L55.8441964,43.1128529 L54.8857143,41.617564 L56.3581195,40.6595706 L55.3539203,39.1879163 L56.7806082,38.2094395 L55.6865514,36.810265 L57.0667341,35.738825 L55.971889,34.408979 L57.279555,33.2477271 L55.9781947,31.9430915 L57.216497,30.7392971 L55.8512904,29.6001043 L56.968206,28.1899003 L55.5375767,27.1893645 L56.4448242,25.7177102 L54.9274902,24.8810416 L55.7417271,23.2959408 L54.1542411,22.5742944 L54.7840332,20.9466511 L53.1114188,20.4582005 L53.5748954,18.720262 L51.8139998,18.3736195 L52.070173,16.6624669 L50.2950893,16.545869 L50.4109584,14.7716905 L48.6145927,14.792174 L48.5483818,13.0447814 L46.7543805,13.2496156 L46.549442,11.5305847 L44.7853935,11.8961348 L44.4433036,10.1771039 L42.6800432,10.6356172 L42.2220842,8.96543134 L40.5557757,9.56102586 L39.9149484,7.92077745 L38.2975098,8.6266673 L37.6566824,6.98641872 L36.0163854,7.76163712 L35.2849122,6.14659889 L33.6934849,7.01478032 L32.8697893,5.44701171 L31.323291,6.31519314 L30.4341726,4.79469381 L28.9601911,5.79838093 L28.0237793,4.27945731 L26.5505859,5.25950962 L25.5700336,3.81149009 L24.1189105,4.8136015 L23.1162876,3.38764107 L21.7140346,4.43544622 L20.6625419,3.01263705 L19.2618652,4.084077 L18.1654437,2.68332677 L16.8577776,3.82094401 L15.7164271,2.42176949 L14.3622559,3.53732748 L13.2902693,2.15863634 L11.936098,3.29940484 L10.7947475,1.94592405 L9.46422299,3.08511685 L8.32523723,1.73163606 L7.0175712,2.89288796 L5.87622067,1.53940717 L4.5456962,2.7006589 L3.43035714,1.34560257 L2.52468603,2.06094635 L1.62532081,1.11555799 L0.542299107,2.03888725 Z"></path>
        <path id="path-9" d="M0.542299107,2.03888725 L1.32343049,2.89603921 L0.523381777,3.59247514 L1.58512138,4.54731726 L0.520228754,5.75898969 L1.74513116,6.82097589 L0.554910714,8.1397924 L1.8759766,9.3294059 L0.663685806,10.6025287 L1.98396344,11.7874152 L0.816601603,13.060538 L2.13609098,14.2013063 L0.971882006,15.5437576 L2.29058313,16.684526 L1.1255859,18.0017669 L2.51365094,19.1425353 L1.39515902,20.4834109 L2.7587891,21.5753342 L1.61743858,22.9382689 L3.00392711,24.0317678 L1.93430527,25.3947025 L3.34128764,26.4645669 L2.3165946,27.8479849 L3.74643558,28.8264616 L2.7461775,30.324902 L4.22331188,31.2765927 L3.2443359,32.7513983 L4.7671875,33.6353363 L3.85994004,35.1763191 L5.37727402,36.0145633 L4.51810822,37.5555461 L6.12766456,38.3197348 L5.31421598,39.9284704 L6.99155973,40.6233308 L6.29398022,42.2541254 L7.94688901,42.8560225 L7.31946152,44.5277839 L9.06065156,45.0162345 L8.52702294,46.7321141 L10.2863421,47.1023912 L9.93952294,48.8371785 L11.6956892,49.0246804 L11.4875976,50.8256451 L13.28554,50.8744901 L13.261105,52.6470929 L15.0535296,52.4879526 L15.1922572,54.3030979 L17.0035993,53.9580312 L17.3472657,55.6754864 L19.0387974,55.1492204 L19.5874024,56.8398895 L21.2087821,56.1544831 L21.9623257,57.7474622 L23.4828125,56.8587974 L24.375872,58.4013558 L25.8254186,57.3976687 L26.8745466,58.8220534 L28.2287179,57.7049197 L29.3684919,59.0347658 L30.651723,57.8073368 L31.8821429,59.0647032 L33.0479283,57.7458866 L34.368206,58.9355001 L35.4835449,57.5016613 L36.8944685,58.6172193 L37.9199498,57.1644728 L39.3497908,58.2107024 L40.326402,56.6902031 L41.780678,57.6671042 L42.7320661,56.1245458 L44.2296945,57.0541775 L45.112507,55.4895602 L46.7220633,56.2316898 L47.5583705,54.6465889 L49.2372908,55.4092021 L50.3557827,54.6607698 L51.213372,55.8787449 L52.6581892,55.5273757 L52.8418457,57.0888418 L54.4206613,57.1565946 L54.5964356,58.8992602 L56.3770368,58.5242561 L58.2033552,56.3183504 L58.2340961,54.5205372 L56.4787179,54.6796775 L56.1382045,53.1197871 L54.6003767,53.2395362 L54.7052107,51.6749188 L53.339216,51.0872023 L53.8720563,49.9322531 L52.8678571,48.5062927 L54.3946499,47.8681557 L53.5961775,46.3003869 L55.1647462,45.523593 L54.2961216,43.9321894 L55.8441964,43.1128529 L54.8857143,41.617564 L56.3581195,40.6595706 L55.3539203,39.1879163 L56.7806082,38.2094395 L55.6865514,36.810265 L57.0667341,35.738825 L55.971889,34.408979 L57.279555,33.2477271 L55.9781947,31.9430915 L57.216497,30.7392971 L55.8512904,29.6001043 L56.968206,28.1899003 L55.5375767,27.1893645 L56.4448242,25.7177102 L54.9274902,24.8810416 L55.7417271,23.2959408 L54.1542411,22.5742944 L54.7840332,20.9466511 L53.1114188,20.4582005 L53.5748954,18.720262 L51.8139998,18.3736195 L52.070173,16.6624669 L50.2950893,16.545869 L50.4109584,14.7716905 L48.6145927,14.792174 L48.5483818,13.0447814 L46.7543805,13.2496156 L46.549442,11.5305847 L44.7853935,11.8961348 L44.4433036,10.1771039 L42.6800432,10.6356172 L42.2220842,8.96543134 L40.5557757,9.56102586 L39.9149484,7.92077745 L38.2975098,8.6266673 L37.6566824,6.98641872 L36.0163854,7.76163712 L35.2849122,6.14659889 L33.6934849,7.01478032 L32.8697893,5.44701171 L31.323291,6.31519314 L30.4341726,4.79469381 L28.9601911,5.79838093 L28.0237793,4.27945731 L26.5505859,5.25950962 L25.5700336,3.81149009 L24.1189105,4.8136015 L23.1162876,3.38764107 L21.7140346,4.43544622 L20.6625419,3.01263705 L19.2618652,4.084077 L18.1654437,2.68332677 L16.8577776,3.82094401 L15.7164271,2.42176949 L14.3622559,3.53732748 L13.2902693,2.15863634 L11.936098,3.29940484 L10.7947475,1.94592405 L9.46422299,3.08511685 L8.32523723,1.73163606 L7.0175712,2.89288796 L5.87622067,1.53940717 L4.5456962,2.7006589 L3.43035714,1.34560257 L2.52468603,2.06094635 L1.62532081,1.11555799 L0.542299107,2.03888725 Z"></path>
        <path id="path-11" d="M0.542299107,2.03888725 L1.32343049,2.89603921 L0.523381777,3.59247514 L1.58512138,4.54731726 L0.520228754,5.75898969 L1.74513116,6.82097589 L0.554910714,8.1397924 L1.8759766,9.3294059 L0.663685806,10.6025287 L1.98396344,11.7874152 L0.816601603,13.060538 L2.13609098,14.2013063 L0.971882006,15.5437576 L2.29058313,16.684526 L1.1255859,18.0017669 L2.51365094,19.1425353 L1.39515902,20.4834109 L2.7587891,21.5753342 L1.61743858,22.9382689 L3.00392711,24.0317678 L1.93430527,25.3947025 L3.34128764,26.4645669 L2.3165946,27.8479849 L3.74643558,28.8264616 L2.7461775,30.324902 L4.22331188,31.2765927 L3.2443359,32.7513983 L4.7671875,33.6353363 L3.85994004,35.1763191 L5.37727402,36.0145633 L4.51810822,37.5555461 L6.12766456,38.3197348 L5.31421598,39.9284704 L6.99155973,40.6233308 L6.29398022,42.2541254 L7.94688901,42.8560225 L7.31946152,44.5277839 L9.06065156,45.0162345 L8.52702294,46.7321141 L10.2863421,47.1023912 L9.93952294,48.8371785 L11.6956892,49.0246804 L11.4875976,50.8256451 L13.28554,50.8744901 L13.261105,52.6470929 L15.0535296,52.4879526 L15.1922572,54.3030979 L17.0035993,53.9580312 L17.3472657,55.6754864 L19.0387974,55.1492204 L19.5874024,56.8398895 L21.2087821,56.1544831 L21.9623257,57.7474622 L23.4828125,56.8587974 L24.375872,58.4013558 L25.8254186,57.3976687 L26.8745466,58.8220534 L28.2287179,57.7049197 L29.3684919,59.0347658 L30.651723,57.8073368 L31.8821429,59.0647032 L33.0479283,57.7458866 L34.368206,58.9355001 L35.4835449,57.5016613 L36.8944685,58.6172193 L37.9199498,57.1644728 L39.3497908,58.2107024 L40.326402,56.6902031 L41.780678,57.6671042 L42.7320661,56.1245458 L44.2296945,57.0541775 L45.112507,55.4895602 L46.7220633,56.2316898 L47.5583705,54.6465889 L49.2372908,55.4092021 L50.3557827,54.6607698 L51.213372,55.8787449 L52.6581892,55.5273757 L52.8418457,57.0888418 L54.4206613,57.1565946 L54.5964356,58.8992602 L56.3770368,58.5242561 L58.2033552,56.3183504 L58.2340961,54.5205372 L56.4787179,54.6796775 L56.1382045,53.1197871 L54.6003767,53.2395362 L54.7052107,51.6749188 L53.339216,51.0872023 L53.8720563,49.9322531 L52.8678571,48.5062927 L54.3946499,47.8681557 L53.5961775,46.3003869 L55.1647462,45.523593 L54.2961216,43.9321894 L55.8441964,43.1128529 L54.8857143,41.617564 L56.3581195,40.6595706 L55.3539203,39.1879163 L56.7806082,38.2094395 L55.6865514,36.810265 L57.0667341,35.738825 L55.971889,34.408979 L57.279555,33.2477271 L55.9781947,31.9430915 L57.216497,30.7392971 L55.8512904,29.6001043 L56.968206,28.1899003 L55.5375767,27.1893645 L56.4448242,25.7177102 L54.9274902,24.8810416 L55.7417271,23.2959408 L54.1542411,22.5742944 L54.7840332,20.9466511 L53.1114188,20.4582005 L53.5748954,18.720262 L51.8139998,18.3736195 L52.070173,16.6624669 L50.2950893,16.545869 L50.4109584,14.7716905 L48.6145927,14.792174 L48.5483818,13.0447814 L46.7543805,13.2496156 L46.549442,11.5305847 L44.7853935,11.8961348 L44.4433036,10.1771039 L42.6800432,10.6356172 L42.2220842,8.96543134 L40.5557757,9.56102586 L39.9149484,7.92077745 L38.2975098,8.6266673 L37.6566824,6.98641872 L36.0163854,7.76163712 L35.2849122,6.14659889 L33.6934849,7.01478032 L32.8697893,5.44701171 L31.323291,6.31519314 L30.4341726,4.79469381 L28.9601911,5.79838093 L28.0237793,4.27945731 L26.5505859,5.25950962 L25.5700336,3.81149009 L24.1189105,4.8136015 L23.1162876,3.38764107 L21.7140346,4.43544622 L20.6625419,3.01263705 L19.2618652,4.084077 L18.1654437,2.68332677 L16.8577776,3.82094401 L15.7164271,2.42176949 L14.3622559,3.53732748 L13.2902693,2.15863634 L11.936098,3.29940484 L10.7947475,1.94592405 L9.46422299,3.08511685 L8.32523723,1.73163606 L7.0175712,2.89288796 L5.87622067,1.53940717 L4.5456962,2.7006589 L3.43035714,1.34560257 L2.52468603,2.06094635 L1.62532081,1.11555799 L0.542299107,2.03888725 Z"></path>
        <path id="path-13" d="M0.542299107,2.03888725 L1.32343049,2.89603921 L0.523381777,3.59247514 L1.58512138,4.54731726 L0.520228754,5.75898969 L1.74513116,6.82097589 L0.554910714,8.1397924 L1.8759766,9.3294059 L0.663685806,10.6025287 L1.98396344,11.7874152 L0.816601603,13.060538 L2.13609098,14.2013063 L0.971882006,15.5437576 L2.29058313,16.684526 L1.1255859,18.0017669 L2.51365094,19.1425353 L1.39515902,20.4834109 L2.7587891,21.5753342 L1.61743858,22.9382689 L3.00392711,24.0317678 L1.93430527,25.3947025 L3.34128764,26.4645669 L2.3165946,27.8479849 L3.74643558,28.8264616 L2.7461775,30.324902 L4.22331188,31.2765927 L3.2443359,32.7513983 L4.7671875,33.6353363 L3.85994004,35.1763191 L5.37727402,36.0145633 L4.51810822,37.5555461 L6.12766456,38.3197348 L5.31421598,39.9284704 L6.99155973,40.6233308 L6.29398022,42.2541254 L7.94688901,42.8560225 L7.31946152,44.5277839 L9.06065156,45.0162345 L8.52702294,46.7321141 L10.2863421,47.1023912 L9.93952294,48.8371785 L11.6956892,49.0246804 L11.4875976,50.8256451 L13.28554,50.8744901 L13.261105,52.6470929 L15.0535296,52.4879526 L15.1922572,54.3030979 L17.0035993,53.9580312 L17.3472657,55.6754864 L19.0387974,55.1492204 L19.5874024,56.8398895 L21.2087821,56.1544831 L21.9623257,57.7474622 L23.4828125,56.8587974 L24.375872,58.4013558 L25.8254186,57.3976687 L26.8745466,58.8220534 L28.2287179,57.7049197 L29.3684919,59.0347658 L30.651723,57.8073368 L31.8821429,59.0647032 L33.0479283,57.7458866 L34.368206,58.9355001 L35.4835449,57.5016613 L36.8944685,58.6172193 L37.9199498,57.1644728 L39.3497908,58.2107024 L40.326402,56.6902031 L41.780678,57.6671042 L42.7320661,56.1245458 L44.2296945,57.0541775 L45.112507,55.4895602 L46.7220633,56.2316898 L47.5583705,54.6465889 L49.2372908,55.4092021 L50.3557827,54.6607698 L51.213372,55.8787449 L52.6581892,55.5273757 L52.8418457,57.0888418 L54.4206613,57.1565946 L54.5964356,58.8992602 L56.3770368,58.5242561 L58.2033552,56.3183504 L58.2340961,54.5205372 L56.4787179,54.6796775 L56.1382045,53.1197871 L54.6003767,53.2395362 L54.7052107,51.6749188 L53.339216,51.0872023 L53.8720563,49.9322531 L52.8678571,48.5062927 L54.3946499,47.8681557 L53.5961775,46.3003869 L55.1647462,45.523593 L54.2961216,43.9321894 L55.8441964,43.1128529 L54.8857143,41.617564 L56.3581195,40.6595706 L55.3539203,39.1879163 L56.7806082,38.2094395 L55.6865514,36.810265 L57.0667341,35.738825 L55.971889,34.408979 L57.279555,33.2477271 L55.9781947,31.9430915 L57.216497,30.7392971 L55.8512904,29.6001043 L56.968206,28.1899003 L55.5375767,27.1893645 L56.4448242,25.7177102 L54.9274902,24.8810416 L55.7417271,23.2959408 L54.1542411,22.5742944 L54.7840332,20.9466511 L53.1114188,20.4582005 L53.5748954,18.720262 L51.8139998,18.3736195 L52.070173,16.6624669 L50.2950893,16.545869 L50.4109584,14.7716905 L48.6145927,14.792174 L48.5483818,13.0447814 L46.7543805,13.2496156 L46.549442,11.5305847 L44.7853935,11.8961348 L44.4433036,10.1771039 L42.6800432,10.6356172 L42.2220842,8.96543134 L40.5557757,9.56102586 L39.9149484,7.92077745 L38.2975098,8.6266673 L37.6566824,6.98641872 L36.0163854,7.76163712 L35.2849122,6.14659889 L33.6934849,7.01478032 L32.8697893,5.44701171 L31.323291,6.31519314 L30.4341726,4.79469381 L28.9601911,5.79838093 L28.0237793,4.27945731 L26.5505859,5.25950962 L25.5700336,3.81149009 L24.1189105,4.8136015 L23.1162876,3.38764107 L21.7140346,4.43544622 L20.6625419,3.01263705 L19.2618652,4.084077 L18.1654437,2.68332677 L16.8577776,3.82094401 L15.7164271,2.42176949 L14.3622559,3.53732748 L13.2902693,2.15863634 L11.936098,3.29940484 L10.7947475,1.94592405 L9.46422299,3.08511685 L8.32523723,1.73163606 L7.0175712,2.89288796 L5.87622067,1.53940717 L4.5456962,2.7006589 L3.43035714,1.34560257 L2.52468603,2.06094635 L1.62532081,1.11555799 L0.542299107,2.03888725 Z"></path>
        <path id="path-15" d="M0.542299107,2.03888725 L1.32343049,2.89603921 L0.523381777,3.59247514 L1.58512138,4.54731726 L0.520228754,5.75898969 L1.74513116,6.82097589 L0.554910714,8.1397924 L1.8759766,9.3294059 L0.663685806,10.6025287 L1.98396344,11.7874152 L0.816601603,13.060538 L2.13609098,14.2013063 L0.971882006,15.5437576 L2.29058313,16.684526 L1.1255859,18.0017669 L2.51365094,19.1425353 L1.39515902,20.4834109 L2.7587891,21.5753342 L1.61743858,22.9382689 L3.00392711,24.0317678 L1.93430527,25.3947025 L3.34128764,26.4645669 L2.3165946,27.8479849 L3.74643558,28.8264616 L2.7461775,30.324902 L4.22331188,31.2765927 L3.2443359,32.7513983 L4.7671875,33.6353363 L3.85994004,35.1763191 L5.37727402,36.0145633 L4.51810822,37.5555461 L6.12766456,38.3197348 L5.31421598,39.9284704 L6.99155973,40.6233308 L6.29398022,42.2541254 L7.94688901,42.8560225 L7.31946152,44.5277839 L9.06065156,45.0162345 L8.52702294,46.7321141 L10.2863421,47.1023912 L9.93952294,48.8371785 L11.6956892,49.0246804 L11.4875976,50.8256451 L13.28554,50.8744901 L13.261105,52.6470929 L15.0535296,52.4879526 L15.1922572,54.3030979 L17.0035993,53.9580312 L17.3472657,55.6754864 L19.0387974,55.1492204 L19.5874024,56.8398895 L21.2087821,56.1544831 L21.9623257,57.7474622 L23.4828125,56.8587974 L24.375872,58.4013558 L25.8254186,57.3976687 L26.8745466,58.8220534 L28.2287179,57.7049197 L29.3684919,59.0347658 L30.651723,57.8073368 L31.8821429,59.0647032 L33.0479283,57.7458866 L34.368206,58.9355001 L35.4835449,57.5016613 L36.8944685,58.6172193 L37.9199498,57.1644728 L39.3497908,58.2107024 L40.326402,56.6902031 L41.780678,57.6671042 L42.7320661,56.1245458 L44.2296945,57.0541775 L45.112507,55.4895602 L46.7220633,56.2316898 L47.5583705,54.6465889 L49.2372908,55.4092021 L50.3557827,54.6607698 L51.213372,55.8787449 L52.6581892,55.5273757 L52.8418457,57.0888418 L54.4206613,57.1565946 L54.5964356,58.8992602 L56.3770368,58.5242561 L58.2033552,56.3183504 L58.2340961,54.5205372 L56.4787179,54.6796775 L56.1382045,53.1197871 L54.6003767,53.2395362 L54.7052107,51.6749188 L53.339216,51.0872023 L53.8720563,49.9322531 L52.8678571,48.5062927 L54.3946499,47.8681557 L53.5961775,46.3003869 L55.1647462,45.523593 L54.2961216,43.9321894 L55.8441964,43.1128529 L54.8857143,41.617564 L56.3581195,40.6595706 L55.3539203,39.1879163 L56.7806082,38.2094395 L55.6865514,36.810265 L57.0667341,35.738825 L55.971889,34.408979 L57.279555,33.2477271 L55.9781947,31.9430915 L57.216497,30.7392971 L55.8512904,29.6001043 L56.968206,28.1899003 L55.5375767,27.1893645 L56.4448242,25.7177102 L54.9274902,24.8810416 L55.7417271,23.2959408 L54.1542411,22.5742944 L54.7840332,20.9466511 L53.1114188,20.4582005 L53.5748954,18.720262 L51.8139998,18.3736195 L52.070173,16.6624669 L50.2950893,16.545869 L50.4109584,14.7716905 L48.6145927,14.792174 L48.5483818,13.0447814 L46.7543805,13.2496156 L46.549442,11.5305847 L44.7853935,11.8961348 L44.4433036,10.1771039 L42.6800432,10.6356172 L42.2220842,8.96543134 L40.5557757,9.56102586 L39.9149484,7.92077745 L38.2975098,8.6266673 L37.6566824,6.98641872 L36.0163854,7.76163712 L35.2849122,6.14659889 L33.6934849,7.01478032 L32.8697893,5.44701171 L31.323291,6.31519314 L30.4341726,4.79469381 L28.9601911,5.79838093 L28.0237793,4.27945731 L26.5505859,5.25950962 L25.5700336,3.81149009 L24.1189105,4.8136015 L23.1162876,3.38764107 L21.7140346,4.43544622 L20.6625419,3.01263705 L19.2618652,4.084077 L18.1654437,2.68332677 L16.8577776,3.82094401 L15.7164271,2.42176949 L14.3622559,3.53732748 L13.2902693,2.15863634 L11.936098,3.29940484 L10.7947475,1.94592405 L9.46422299,3.08511685 L8.32523723,1.73163606 L7.0175712,2.89288796 L5.87622067,1.53940717 L4.5456962,2.7006589 L3.43035714,1.34560257 L2.52468603,2.06094635 L1.62532081,1.11555799 L0.542299107,2.03888725 Z"></path>
        <path id="path-17" d="M0.542299107,2.03888725 L1.32343049,2.89603921 L0.523381777,3.59247514 L1.58512138,4.54731726 L0.520228754,5.75898969 L1.74513116,6.82097589 L0.554910714,8.1397924 L1.8759766,9.3294059 L0.663685806,10.6025287 L1.98396344,11.7874152 L0.816601603,13.060538 L2.13609098,14.2013063 L0.971882006,15.5437576 L2.29058313,16.684526 L1.1255859,18.0017669 L2.51365094,19.1425353 L1.39515902,20.4834109 L2.7587891,21.5753342 L1.61743858,22.9382689 L3.00392711,24.0317678 L1.93430527,25.3947025 L3.34128764,26.4645669 L2.3165946,27.8479849 L3.74643558,28.8264616 L2.7461775,30.324902 L4.22331188,31.2765927 L3.2443359,32.7513983 L4.7671875,33.6353363 L3.85994004,35.1763191 L5.37727402,36.0145633 L4.51810822,37.5555461 L6.12766456,38.3197348 L5.31421598,39.9284704 L6.99155973,40.6233308 L6.29398022,42.2541254 L7.94688901,42.8560225 L7.31946152,44.5277839 L9.06065156,45.0162345 L8.52702294,46.7321141 L10.2863421,47.1023912 L9.93952294,48.8371785 L11.6956892,49.0246804 L11.4875976,50.8256451 L13.28554,50.8744901 L13.261105,52.6470929 L15.0535296,52.4879526 L15.1922572,54.3030979 L17.0035993,53.9580312 L17.3472657,55.6754864 L19.0387974,55.1492204 L19.5874024,56.8398895 L21.2087821,56.1544831 L21.9623257,57.7474622 L23.4828125,56.8587974 L24.375872,58.4013558 L25.8254186,57.3976687 L26.8745466,58.8220534 L28.2287179,57.7049197 L29.3684919,59.0347658 L30.651723,57.8073368 L31.8821429,59.0647032 L33.0479283,57.7458866 L34.368206,58.9355001 L35.4835449,57.5016613 L36.8944685,58.6172193 L37.9199498,57.1644728 L39.3497908,58.2107024 L40.326402,56.6902031 L41.780678,57.6671042 L42.7320661,56.1245458 L44.2296945,57.0541775 L45.112507,55.4895602 L46.7220633,56.2316898 L47.5583705,54.6465889 L49.2372908,55.4092021 L50.3557827,54.6607698 L51.213372,55.8787449 L52.6581892,55.5273757 L52.8418457,57.0888418 L54.4206613,57.1565946 L54.5964356,58.8992602 L56.3770368,58.5242561 L58.2033552,56.3183504 L58.2340961,54.5205372 L56.4787179,54.6796775 L56.1382045,53.1197871 L54.6003767,53.2395362 L54.7052107,51.6749188 L53.339216,51.0872023 L53.8720563,49.9322531 L52.8678571,48.5062927 L54.3946499,47.8681557 L53.5961775,46.3003869 L55.1647462,45.523593 L54.2961216,43.9321894 L55.8441964,43.1128529 L54.8857143,41.617564 L56.3581195,40.6595706 L55.3539203,39.1879163 L56.7806082,38.2094395 L55.6865514,36.810265 L57.0667341,35.738825 L55.971889,34.408979 L57.279555,33.2477271 L55.9781947,31.9430915 L57.216497,30.7392971 L55.8512904,29.6001043 L56.968206,28.1899003 L55.5375767,27.1893645 L56.4448242,25.7177102 L54.9274902,24.8810416 L55.7417271,23.2959408 L54.1542411,22.5742944 L54.7840332,20.9466511 L53.1114188,20.4582005 L53.5748954,18.720262 L51.8139998,18.3736195 L52.070173,16.6624669 L50.2950893,16.545869 L50.4109584,14.7716905 L48.6145927,14.792174 L48.5483818,13.0447814 L46.7543805,13.2496156 L46.549442,11.5305847 L44.7853935,11.8961348 L44.4433036,10.1771039 L42.6800432,10.6356172 L42.2220842,8.96543134 L40.5557757,9.56102586 L39.9149484,7.92077745 L38.2975098,8.6266673 L37.6566824,6.98641872 L36.0163854,7.76163712 L35.2849122,6.14659889 L33.6934849,7.01478032 L32.8697893,5.44701171 L31.323291,6.31519314 L30.4341726,4.79469381 L28.9601911,5.79838093 L28.0237793,4.27945731 L26.5505859,5.25950962 L25.5700336,3.81149009 L24.1189105,4.8136015 L23.1162876,3.38764107 L21.7140346,4.43544622 L20.6625419,3.01263705 L19.2618652,4.084077 L18.1654437,2.68332677 L16.8577776,3.82094401 L15.7164271,2.42176949 L14.3622559,3.53732748 L13.2902693,2.15863634 L11.936098,3.29940484 L10.7947475,1.94592405 L9.46422299,3.08511685 L8.32523723,1.73163606 L7.0175712,2.89288796 L5.87622067,1.53940717 L4.5456962,2.7006589 L3.43035714,1.34560257 L2.52468603,2.06094635 L1.62532081,1.11555799 L0.542299107,2.03888725 Z"></path>
    </defs>
    <g id="Page-1" stroke="none" stroke-width="1" fill="none" fill-rule="evenodd" sketch:type="MSPage">
        <g id="Modal-Button" sketch:type="MSArtboardGroup">
            <rect id="Rectangle-181" fill="#FFF3DF" sketch:type="MSShapeGroup" x="59" y="12" width="496" height="94" rx="8"></rect>
            <g id="lenzing-modal_logo" sketch:type="MSLayerGroup" transform="translate(215.000000, 28.981132)">
                <path d="M120.975265,16.0526916 L125.464997,16.0526916 L125.464997,14.8804101 L122.372001,14.8804101 L122.372001,9.70913672 L120.975265,9.70913672 L120.975265,16.0526916 Z" id="Shape" fill="#1D1D1B" sketch:type="MSShapeGroup"></path>
                <path d="M126.842815,16.0526916 L131.660449,16.0526916 L131.660449,14.8804101 L128.239551,14.8804101 L128.239551,13.3252467 L131.31363,13.3252467 L131.31363,12.2412015 L128.239551,12.2412015 L128.239551,10.8829938 L131.589509,10.8829938 L131.589509,9.70913672 L126.842815,9.70913672 L126.842815,16.0526916 Z" id="Shape" fill="#1D1D1B" sketch:type="MSShapeGroup"></path>
                <path d="M133.199065,16.0526916 L134.505943,16.0526916 L134.505943,11.8047472 L134.524861,11.8047472 L137.163839,16.0526916 L138.560575,16.0526916 L138.560575,9.70913672 L137.252121,9.70913672 L137.252121,13.9649592 L137.23478,13.9649592 L134.584766,9.70913672 L133.199065,9.70913672 L133.199065,16.0526916 Z" id="Shape" fill="#1D1D1B" sketch:type="MSShapeGroup"></path>
                <path d="M139.974651,16.0526916 L145.325126,16.0526916 L145.325126,14.8804101 L141.83171,14.8804101 L145.236844,10.8120897 L145.236844,9.70913672 L140.241071,9.70913672 L140.241071,10.8829938 L143.378209,10.8829938 L139.974651,14.9513144 L139.974651,16.0526916 Z" id="Shape" fill="#1D1D1B" sketch:type="MSShapeGroup"></path>
                <rect id="Rectangle-path" fill="#1D1D1B" sketch:type="MSShapeGroup" x="146.740778" y="9.70913672" width="1.39515902" height="6.34513045"></rect>
                <path d="M149.958315,16.0526916 L151.265193,16.0526916 L151.265193,11.8047472 L151.282534,11.8047472 L153.923089,16.0526916 L155.318248,16.0526916 L155.318248,9.70913672 L154.01137,9.70913672 L154.01137,13.9649592 L153.994029,13.9649592 L151.344015,9.70913672 L149.958315,9.70913672 L149.958315,16.0526916 Z" id="Shape" fill="#1D1D1B" sketch:type="MSShapeGroup"></path>
                <path d="M161.871554,16.0526916 L162.760672,16.0526916 L162.760672,12.6225081 L160.094894,12.6225081 L160.094894,13.6640107 L161.499512,13.6640107 C161.417536,14.5432218 160.894155,15.0316722 159.986119,15.0316722 C158.73284,15.0316722 158.263058,13.9649592 158.263058,12.9077002 C158.263058,11.796869 158.73284,10.730156 159.986119,10.730156 C160.645075,10.730156 161.170033,11.0957061 161.329255,11.796869 L162.662932,11.796869 C162.51317,10.3583032 161.285114,9.55787461 159.986119,9.55787461 C158.021861,9.55787461 156.866323,11.024802 156.866323,12.9077002 C156.866323,14.7386019 158.021861,16.2055293 159.986119,16.2055293 C160.599358,16.2055293 161.240974,15.9644552 161.729673,15.3341964 L161.871554,16.0526916 L161.871554,16.0526916 Z" id="Shape" fill="#1D1D1B" sketch:type="MSShapeGroup"></path>
                <path d="M216.142453,46.6753908 L216.142453,12.0048544 C216.142453,10.5395028 215.146136,9.60199281 213.621708,9.60199281 C212.038951,9.60199281 211.041058,10.5395028 211.041058,12.0048544 L211.041058,46.6753908 C211.041058,48.1391669 212.038951,49.0766767 213.621708,49.0766767 C215.146136,49.0766769 216.142453,48.1391669 216.142453,46.6753908" id="Shape" fill="#1D1D1B" sketch:type="MSShapeGroup"></path>
                <path d="M201.043206,35.3134005 C201.043206,39.8827766 198.814104,45.2116148 192.541406,45.2116148 C186.265555,45.2116148 184.097935,39.8827766 184.097935,35.3134005 C184.097935,30.7455998 186.265555,25.3568872 192.541406,25.3568872 C198.814104,25.356887 201.043206,30.7455998 201.043206,35.3134005 M205.793052,46.9101623 L205.793052,23.6583395 C205.793052,22.1362645 204.442034,21.491825 203.447294,21.491825 C202.391071,21.491825 201.101535,22.1362646 201.101535,23.6583395 L201.101535,25.1236912 L200.983301,25.1236912 C198.58079,22.8390031 196.118373,21.4918248 192.541406,21.4918248 C183.861468,21.4918248 178.99654,28.1678411 178.99654,35.3134001 C178.99654,42.4589592 183.861468,49.0766765 192.541406,49.0766765 C195.883482,49.0766765 198.755776,47.7877973 200.983301,45.035142 L201.101535,45.035142 L201.101535,46.910162 C201.101535,48.4921116 202.391071,49.0766765 203.447294,49.0766765 C204.442034,49.0766769 205.793052,48.4921118 205.793052,46.9101623" id="Shape" fill="#1D1D1B" sketch:type="MSShapeGroup"></path>
                <path d="M116.345229,46.6753908 C116.345229,46.4421951 116.2869,46.1475491 116.2869,45.7961797 C116.228571,45.4463862 116.111914,45.095017 116.053585,44.625474 L111.243834,15.751743 C110.833957,13.1755601 109.192871,12.296349 107.375223,12.296349 C105.439341,12.296349 104.325579,12.939213 103.739139,14.6992107 L95.1790109,40.8187109 L86.6180944,14.6992108 C86.0324428,12.9392132 84.9770089,12.2963492 82.9827986,12.2963492 C81.2234794,12.2963492 79.5232772,13.1755603 79.1133999,15.7517431 L74.3060129,44.6254742 C74.2461078,45.095017 74.1885674,45.4463864 74.1302387,45.7961799 C74.0703335,46.1475491 74.0120049,46.4421951 74.0120049,46.6753909 C74.0120049,48.0808681 74.8341239,49.0766769 76.4160924,49.0766769 C77.7056292,49.0766769 78.879297,48.7253076 79.1133999,47.0283359 L83.1010323,18.3878004 L92.599149,47.2032326 C93.12726,48.7253076 94.0652483,49.0766769 95.1790109,49.0766769 C96.3526786,49.0766769 97.2906669,48.7253076 97.7588727,47.2032326 L107.316894,18.3878004 L111.302162,47.0283359 C111.537842,48.7253076 112.709933,49.0766769 113.99947,49.0766769 C115.525474,49.0766769 116.345229,48.080868 116.345229,46.6753908" id="Shape" fill="#1D1D1B" sketch:type="MSShapeGroup"></path>
                <path d="M175.515737,46.6769665 L175.515737,12.0032787 C175.515737,10.5395026 174.579325,9.60199281 172.994992,9.60199281 C171.412235,9.60199281 170.474247,10.5395028 170.474247,12.0032787 L170.474247,25.1236912 L170.356013,25.1236912 C169.008147,23.4834426 166.134277,21.4918248 162.089104,21.4918248 C153.703962,21.4918248 148.895787,28.1694168 148.895787,35.3134001 C148.895787,42.4589592 153.703962,49.0782522 162.089104,49.0782522 C166.134277,49.0782522 168.889913,47.7877973 170.356013,45.3880869 L170.474247,45.3880869 L170.474247,46.6769661 C170.474247,48.1407423 171.412235,49.0782521 172.994992,49.0782521 C174.579325,49.0782526 175.515737,48.1407426 175.515737,46.6769665 M170.942453,35.3134005 C170.942453,39.8827766 168.77168,45.2116148 162.498982,45.2116148 C156.224707,45.2116148 153.998758,39.8827766 153.998758,35.3134005 C153.998758,30.7455998 156.224707,25.3568872 162.498982,25.3568872 C168.77168,25.356887 170.942453,30.7455998 170.942453,35.3134005" id="Shape" fill="#1D1D1B" sketch:type="MSShapeGroup"></path>
                <path d="M145.717662,35.3134005 C145.717662,28.169417 140.849581,21.4918251 132.172796,21.4918251 C123.49601,21.4918251 118.629506,28.1694171 118.629506,35.3134005 C118.629506,42.4589595 123.49601,49.0782526 132.172796,49.0782526 C140.849581,49.0782526 145.717662,42.4589595 145.717662,35.3134005 M140.616267,35.3134005 C140.616267,39.8827766 138.44707,45.2116148 132.172796,45.2116148 C125.898521,45.2116148 123.730901,39.8827766 123.730901,35.3134005 C123.730901,30.7455998 125.898521,25.3568872 132.172796,25.3568872 C138.44707,25.3568872 140.616267,30.7455998 140.616267,35.3134005" id="Shape" fill="#1D1D1B" sketch:type="MSShapeGroup"></path>
                <path d="M220.879688,11.9166182 L221.871275,11.9166182 C222.389927,11.9166182 222.921191,12.037943 222.921191,12.6555966 C222.921191,13.4056047 222.334752,13.4497227 221.696289,13.4497227 L220.879687,13.4497227 L220.879687,11.9166182 L220.879688,11.9166182 Z M220.879688,13.9791401 L221.738853,13.9791401 L222.866016,15.8194958 C222.987402,16.0196029 223.119824,16.0842045 223.252246,16.0842045 C223.461914,16.0842045 223.583301,15.9408206 223.583301,15.8100419 C223.583301,15.6871414 223.51709,15.5894512 223.439844,15.4681264 L222.467173,13.9555053 C223.042578,13.8798742 223.583301,13.5269293 223.583301,12.6886852 C223.583301,11.8173524 223.053613,11.3872008 221.981627,11.3872008 L220.425669,11.3872008 C220.260142,11.3872008 220.216002,11.453378 220.216002,11.5747028 L220.216002,15.6319937 C220.216002,15.8856729 220.337388,16.0842043 220.547056,16.0842043 C220.756724,16.0842043 220.879687,15.8856728 220.879687,15.6319937 L220.879687,13.9791401 L220.879688,13.9791401 Z M217.72048,13.6372246 C217.72048,15.8415547 219.508175,17.6283385 221.716783,17.6283385 C223.925391,17.6283385 225.714662,15.8415547 225.714662,13.6372246 C225.714662,11.4313189 223.925391,9.64453513 221.716783,9.64453513 C219.508175,9.64453513 217.72048,11.4313189 217.72048,13.6372246 L217.72048,13.6372246 Z M218.450377,13.6372246 C218.450377,11.7952933 219.940123,10.306307 221.716783,10.306307 C223.49502,10.306307 224.986342,11.7952934 224.986342,13.6372246 C224.986342,15.4775803 223.49502,16.9665668 221.716783,16.9665668 C219.940123,16.9665668 218.450377,15.4775803 218.450377,13.6372246 L218.450377,13.6372246 Z" id="Shape" fill="#1D1D1B" sketch:type="MSShapeGroup"></path>
                <g id="Group">
                    <g id="Clipped">
                        <mask id="mask-2" sketch:name="SVGID_1_" fill="white">
                            <use xlink:href="#path-1"></use>
                        </mask>
                        <g id="SVGID_1_"></g>
                        <path d="M1.22884352,0.267859948 L13.7316756,0.267859948 L13.7316756,12.7580137 L1.22884352,0.267859948 Z" id="Shape" fill="#FBC773" sketch:type="MSShapeGroup" mask="url(#mask-2)"></path>
                    </g>
                    <g id="Clipped">
                        <mask id="mask-4" sketch:name="SVGID_1_" fill="white">
                            <use xlink:href="#path-3"></use>
                        </mask>
                        <g id="SVGID_1_"></g>
                        <path d="M30.9346958,29.9404441 L30.9346958,0.267859948 L28.8001813,0.267859948 L28.8001813,27.8085936 L15.8654018,14.8882885 L15.8654018,0.267859948 L37.9294086,0.267859948 C39.9874651,0.267859948 41.979311,0.54990078 43.8694755,1.07616692 L43.8694755,42.8607494 L30.9346958,29.9404441 L30.9346958,29.9404441 Z" id="Shape" fill="#FBC773" sketch:type="MSShapeGroup" mask="url(#mask-4)"></path>
                    </g>
                    <g id="Clipped">
                        <mask id="mask-6" sketch:name="SVGID_1_" fill="white">
                            <use xlink:href="#path-5"></use>
                        </mask>
                        <g id="SVGID_1_"></g>
                        <path d="M46.00399,44.9925999 L46.00399,1.78835927 C54.2023229,5.00898181 60.0060268,12.988058 60.0060268,22.3206152 L60.0060268,60.4764827 L60.0060268,58.979618 L46.00399,44.9925999 L46.00399,44.9925999 Z" id="Shape" fill="#FBC773" sketch:type="MSShapeGroup" mask="url(#mask-6)"></path>
                    </g>
                    <g id="Clipped">
                        <mask id="mask-8" sketch:name="SVGID_1_" fill="white">
                            <use xlink:href="#path-7"></use>
                        </mask>
                        <g id="SVGID_1_"></g>
                        <path d="M-0.270361379,14.2533027 L-0.270361379,1.78520802 L13.4557966,14.9654951 L-0.270361379,14.2533027 Z" id="Shape" fill="#F7AA0F" sketch:type="MSShapeGroup" mask="url(#mask-8)"></path>
                    </g>
                    <g id="Clipped">
                        <mask id="mask-10" sketch:name="SVGID_1_" fill="white">
                            <use xlink:href="#path-9"></use>
                        </mask>
                        <g id="SVGID_1_"></g>
                        <path d="M58.4863282,60.4749072 L60.0052387,60.4764829 L21.806257,60.4764829 C12.4649972,60.4764829 4.47712054,54.6796776 1.25327848,46.4894645 L45.0116141,45.7804234 L58.4863282,60.4749072 L58.4863282,60.4749072 Z" id="Shape" fill="#F7AA0F" sketch:type="MSShapeGroup" mask="url(#mask-10)"></path>
                    </g>
                    <g id="Clipped">
                        <mask id="mask-12" sketch:name="SVGID_1_" fill="white">
                            <use xlink:href="#path-11"></use>
                        </mask>
                        <g id="SVGID_1_"></g>
                        <path d="M28.4722796,29.8632375 L-0.269573123,29.307034 L-0.269573123,16.385153 L14.3267857,15.7611969 L28.4722796,29.8632375 Z" id="Shape" fill="#F7AA0F" sketch:type="MSShapeGroup" mask="url(#mask-12)"></path>
                    </g>
                    <g id="Clipped">
                        <mask id="mask-14" sketch:name="SVGID_1_" fill="white">
                            <use xlink:href="#path-13"></use>
                        </mask>
                        <g id="SVGID_1_"></g>
                        <path d="M43.3051061,45.0162345 L0.539934501,44.3591898 C0.0118235129,42.4715647 -0.270361217,40.4799469 -0.270361217,38.4237277 L-0.270361217,31.4373088 L29.487514,30.7723857 L43.3051061,45.0162345 L43.3051061,45.0162345 Z" id="Shape" fill="#F7AA0F" sketch:type="MSShapeGroup" mask="url(#mask-14)"></path>
                    </g>
                    <g id="Clipped">
                        <mask id="mask-16" sketch:name="SVGID_1_" fill="white">
                            <use xlink:href="#path-15"></use>
                        </mask>
                        <g id="SVGID_1_"></g>
                        <path d="M15.8654018,14.8882885 L28.8009696,27.8085938 L28.8009696,0.266284402 L30.9346958,0.266284402 L30.9346958,29.9404443 L43.8702636,42.8623253 L43.8702636,1.07616692 C44.5970075,1.27784973 45.3087751,1.51734807 46.0024135,1.78993498 L46.0024135,44.9925999 L60.0052385,58.9796182 L60.0052385,60.4764829 L58.486328,60.4749072 L44.4850795,46.4894644 L1.25327848,46.4894644 C0.980552496,45.7961797 0.743296566,45.0839872 0.539934501,44.3576139 L42.3513533,44.3576139 L29.4157855,31.4373088 L-0.271149634,31.4373088 L-0.271149634,29.3054583 L27.2820591,29.3054583 L14.3464913,16.385153 L-0.271149634,16.385153 L-0.271149634,14.2533027 L12.2127649,14.2533027 L-0.271149634,1.78520802 L-0.271149634,0.285192085 L-0.271149634,0.266284402 L1.22884336,0.266284402 L13.7316756,12.756438 L13.7316756,0.266284402 L15.8654018,0.266284402 L15.8654018,14.8882885 L15.8654018,14.8882885 Z" id="Shape" fill="#FAB948" sketch:type="MSShapeGroup" mask="url(#mask-16)"></path>
                    </g>
                    <g id="Clipped">
                        <mask id="mask-18" sketch:name="SVGID_1_" fill="white">
                            <use xlink:href="#path-17"></use>
                        </mask>
                        <g id="SVGID_1_"></g>
                        <path d="M12.2135533,14.2533027 L-0.269573123,1.78520802 L-0.269573123,0.286767793 L-0.269573123,0.266284402 L1.22805527,0.266284402 L13.7324637,12.756438 L13.7324637,0.266284402 L15.8661899,0.266284402 L15.8661899,14.8882885 L28.8017577,27.8085938 L28.8017577,0.266284402 L30.9339076,0.266284402 L30.9339076,29.9404443 L43.8694754,42.8623253 L43.8694754,1.07616692 C44.5977957,1.27784973 45.3095632,1.51734807 46.0032016,1.78993498 L46.0032016,44.9925999 L60.0060266,58.9796182 L60.0060266,60.4764829 L58.4871161,60.4749072 L44.4858676,46.4894644 L42.3521414,44.3576139 L29.4165736,31.4373086 L27.2828474,29.3054582 L14.3472796,16.3851528 L12.2135533,14.2533027 L12.2135533,14.2533027 Z" id="Shape" fill="#FDD699" sketch:type="MSShapeGroup" mask="url(#mask-18)"></path>
                    </g>
                </g>
            </g>
            <rect id="Rectangle-181" fill="#F9E3C1" sketch:type="MSShapeGroup" x="475" y="12" width="80" height="94" rx="8"></rect>
            <path d="M518,49 L518,72 L495,72" id="Rectangle-183" stroke="#F7AA0F" stroke-width="5" stroke-linecap="round" stroke-linejoin="round" sketch:type="MSShapeGroup" transform="translate(506.500000, 60.500000) rotate(-45.000000) translate(-506.500000, -60.500000) "></path>
            <text id="Sustainably-" sketch:type="MSTextLayer" font-family="Poppins" font-size="16" font-weight="420" sketch:alignment="middle" line-spacing="19" letter-spacing="0.0363636352" fill="#D3900A">
                <tspan x="87" y="57">Sustainably </tspan>
                <tspan x="91.2763636" y="76">made with</tspan>
            </text>
        </g>
    </g>
</svg>